<svg width="93" height="116" viewBox="0 0 93 116" fill="none" xmlns="http://www.w3.org/2000/svg">
<path d="M84.0872 18.9578C74.5396 5.87432 62.8421 1.22749 46.6457 1.11808C30.216 1.00709 18.4302 5.83537 8.54351 18.9578C-3.56983 35.0357 -0.339109 67.1994 15.8116 89.8764C24.7573 102.437 40.699 114.324 46.6457 114.544C52.5925 114.764 69.1601 100.828 77.2596 89.8764C92.897 68.733 95.9805 35.2559 84.0872 18.9578Z" stroke="#CDE648" stroke-width="1.76195"/>
<path d="M39.7431 75.7196C39.7393 75.9285 39.7343 76.1266 39.7285 76.3132C39.5534 76.3112 39.3686 76.3082 39.1747 76.3042C37.5768 76.2712 35.3781 76.1649 32.9708 75.8734C28.0151 75.2732 22.7165 73.9451 19.6767 71.3245C13.8064 66.2637 11.6726 60.0489 11.0066 55.0283C10.6731 52.514 10.7117 50.3182 10.8332 48.7578C10.8597 48.4174 10.8901 48.1082 10.9212 47.8335C11.2302 47.795 11.5814 47.7556 11.9698 47.7187C13.6007 47.564 15.8627 47.4573 18.3859 47.6456C23.4912 48.0267 29.3215 49.5856 33.3513 53.9957C37.1848 58.1911 38.8102 64.14 39.4232 69.2879C39.7256 71.8274 39.7723 74.0919 39.7431 75.7196Z" fill="url(#paint0_radial_1236_45)" stroke="#CDE648" stroke-width="4.40488"/>
<path d="M53.4805 75.4151C53.4842 75.6197 53.4891 75.814 53.4949 75.9972C53.6701 75.9952 53.8551 75.9922 54.0492 75.9883C55.6474 75.9554 57.8465 75.8495 60.2542 75.5591C65.211 74.9614 70.511 73.6386 73.5511 71.0288C79.4204 65.9904 81.5526 59.8047 82.2181 54.8092C82.5515 52.307 82.5129 50.1218 82.3914 48.569C82.3652 48.2333 82.3351 47.9281 82.3043 47.6566C81.9953 47.6182 81.644 47.5789 81.2556 47.5423C79.6243 47.3882 77.3616 47.2819 74.8377 47.4695C69.7302 47.849 63.8987 49.4021 59.8694 53.7931C56.0376 57.9687 54.413 63.8892 53.8003 69.0131C53.498 71.5408 53.4513 73.7949 53.4805 75.4151Z" fill="url(#paint1_radial_1236_45)" stroke="#CDE648" stroke-width="4.40488"/>
<defs>
<radialGradient id="paint0_radial_1236_45" cx="0" cy="0" r="1" gradientUnits="userSpaceOnUse" gradientTransform="translate(25.248 61.9312) rotate(90) scale(16.5884 16.705)">
<stop stop-color="#6435E3"/>
<stop offset="1" stop-color="#5316F7" stop-opacity="0.41"/>
</radialGradient>
<radialGradient id="paint1_radial_1236_45" cx="0" cy="0" r="1" gradientUnits="userSpaceOnUse" gradientTransform="translate(67.9761 61.6853) rotate(90) scale(16.5183 16.7055)">
<stop stop-color="#6435E3"/>
<stop offset="1" stop-color="#5316F7" stop-opacity="0.41"/>
</radialGradient>
</defs>
</svg>
